<?xml version="1.0" encoding="utf-8"?>
<!-- Generator: Adobe Illustrator 23.0.1, SVG Export Plug-In . SVG Version: 6.00 Build 0)  -->
<svg version="1.1" id="Capa_1" xmlns="http://www.w3.org/2000/svg" xmlns:xlink="http://www.w3.org/1999/xlink" x="0px" y="0px"
	 viewBox="0 0 469.8 469.8" style="enable-background:new 0 0 469.8 469.8;" xml:space="preserve">
<style type="text/css">
	.st0{fill:#4CAF50;}
	.st1{fill:#388E3C;}
</style>
<g>
	<path class="st0" d="M200.6,112C170,81.4,110.1,77.9,67.8,77.9c-4.4,0-8,3.6-8,8c0,42.4,3.5,102.3,34.1,132.8
		c14.4,12.8,33.1,19.5,52.3,18.7c19.8,0.8,39.2-5.9,54.3-18.7C223.4,195.9,227.6,139,200.6,112z"/>
	<path class="st0" d="M402,109.3c-42.4,0-102.3,3.5-132.8,34.1c-27,27-22.8,83.9,0,106.7c15.1,12.8,34.5,19.5,54.3,18.7
		c19.2,0.8,38-5.9,52.3-18.7c30.6-30.6,34.1-90.5,34.1-132.8C410,112.9,406.4,109.3,402,109.3z"/>
</g>
<path class="st1" d="M226.8,395.9c-4.4,0-8-3.6-8-8c0-168.6-61.8-211-85.1-226.9c-2.8-1.8-5.5-3.8-8-6c-3.1-3.2-3-8.2,0.2-11.2
	c3.1-3,8-3,11,0c1.8,1.5,3.7,2.9,5.7,4.2c20.7,14.1,69.4,47.5,86.2,156.7c13-57.1,51.6-105.1,104.6-130.1c4.1-1.9,8.9-0.4,11.1,3.5
	c2,3.5,0.8,8-2.8,10.1c-0.1,0.1-0.3,0.1-0.4,0.2l-1.3,0.6C253,230,234.7,319.8,234.7,388C234.7,392.3,231.1,395.9,226.8,395.9z"/>
</svg>
